<?xml version="1.0" standalone="no"?> <!DOCTYPE svg PUBLIC "-//W3C//DTD SVG 1.0//EN" "http://www.w3.org/TR/2001/REC-SVG-20010904/DTD/svg10.dtd" > <svg xmlns="http://www.w3.org/2000/svg" width="100%" height="100%">
<defs >
<font id="firasans-heavyitalic" horiz-adv-x="514" ><font-face
    font-family="Fira Sans Heavy"
    units-per-em="1000"
    panose-1="2 11 10 3 5 0 0 2 0 4"
    ascent="1050"
    descent="-500"
    alphabetic="0" />
<missing-glyph horiz-adv-x="1000" />
<glyph unicode=" " glyph-name="space" horiz-adv-x="208" />
<glyph unicode="!" glyph-name="exclam" horiz-adv-x="228" d="M38 270L72 696H276L190 270H38ZM143 186T168 160T194 95Q194 65 178 39T136 -4T80 -20Q41 -20 16 7T-10 73Q-10 102 6 128T48 170T105 186Q143 186 168 160Z" />
<glyph unicode="&quot;" glyph-name="quotedbl" horiz-adv-x="452" d="M476 696L415 406H291L310 696H476ZM262 696L201 406H77L96 696H262Z" />
<glyph unicode="#" glyph-name="numbersign" horiz-adv-x="568" d="M465 257H516L498 131H431L396 0H236L271 131H205L170 0H10L45 131H-5L13 257H79L127 436H75L92 562H160L192 680H353L321 562H386L418 680H579L547 562H595L578 436H513L465 257ZM287 436L239
257H305L353 436H287Z" />
<glyph unicode="$" glyph-name="dollar" horiz-adv-x="550" d="M522 364T522 227Q522 176 500 129T428 46T304 -2L281 -165H148L171 -6Q106 2 55 29T-29 94L80 197Q112 165 151 149T229 132Q271 132 295 151T319 198Q319 225 301 241T235 276Q143 310 103 358T63
468Q63 545 116 605T267 683L288 834H421L399 686Q501 670 573 598L477 499Q409 551 348 551Q309 551 288 537T267 499Q267 476 286 461T361 424Q522 364 522 227Z" />
<glyph unicode="%" glyph-name="percent" horiz-adv-x="867" d="M222 -45L118 28L668 725L774 652L222 -45ZM335 696T380 653T425 538Q425 487 402 438T332 356T216 324Q145 324 100 367T54 482Q54 533 77 582T148 664T264 696Q335 696 380 653ZM213 582T199 552T184
486Q184 438 228 438Q264 438 279 466T295 534Q295 582 252 582Q213 582 199 552ZM743 352T788 309T833 194Q833 143 810 94T740 12T624 -20Q553 -20 508 23T462 138Q462 189 485 238T556 320T672 352Q743 352 788 309ZM621 238T607 208T592 142Q592 94 636 94Q672
94 687 122T703 190Q703 238 660 238Q621 238 607 208Z" />
<glyph unicode="&amp;" glyph-name="ampersand" horiz-adv-x="795" d="M472 716T528 671T584 553Q584 504 551 459T433 357L525 255Q555 304 581 371L732 322Q687 236 617 154L715 52L548 -20L491 44Q439 9 384 -5T267 -20Q197 -20 145 3T65 68T37 164Q37 231
73 279T194 375Q154 421 139 454T123 529Q123 570 146 613T224 686T371 716Q472 716 528 671ZM336 594T321 578T305 534Q305 516 312 501T339 461Q403 506 403 553Q403 571 391 582T361 594Q336 594 321 578ZM266 245T256 225T245 180Q245 150 263 133T317 116Q360
116 405 136L290 265Q266 245 256 225Z" />
<glyph unicode="&apos;" glyph-name="quotesingle" horiz-adv-x="238" d="M262 696L201 406H77L96 696H262Z" />
<glyph unicode="(" glyph-name="parenleft" horiz-adv-x="313" d="M313 684T270 581T208 347Q197 270 197 207Q197 44 271 -88L136 -166Q94 -95 68 -39T24 87T6 239Q6 298 14 353Q30 465 67 554T154 713T276 868L394 781Q313 684 270 581Z" />
<glyph unicode=")" glyph-name="parenright" horiz-adv-x="313" d="M242 794T268 738T312 612T330 460Q330 400 322 347Q306 235 269 146T182 -14T59 -168L-58 -81Q23 16 66 119T128 353Q139 428 139 491Q139 656 64 788L200 866Q242 794 268 738Z" />
<glyph unicode="*" glyph-name="asterisk" horiz-adv-x="443" d="M430 409L287 312L245 434L172 311L55 408L163 502L33 519L102 670L213 608L204 744H374L328 609L451 673L480 520L345 502L430 409Z" />
<glyph unicode="+" glyph-name="plus" horiz-adv-x="536" d="M518 407L497 257H345L322 97H166L189 257H37L58 407H210L231 567H388L366 407H518Z" />
<glyph unicode="," glyph-name="comma" horiz-adv-x="242" d="M146 186T171 161T196 97Q196 69 185 43T139 -45L58 -184H-43L28 0Q-7 24 -7 69Q-7 118 26 152T107 186Q146 186 171 161Z" />
<glyph unicode="-" glyph-name="hyphen" horiz-adv-x="398" d="M383 388L362 238H28L49 388H383Z" />
<glyph unicode="." glyph-name="period" horiz-adv-x="240" d="M143 186T168 160T194 95Q194 65 178 39T136 -4T80 -20Q41 -20 16 7T-10 73Q-10 102 6 128T48 170T105 186Q143 186 168 160Z" />
<glyph unicode="/" glyph-name="slash" horiz-adv-x="508" d="M171 -117L4 -77L362 822L528 782L171 -117Z" />
<glyph unicode="0" glyph-name="zero" horiz-adv-x="590" d="M462 696T521 628T581 432Q581 329 551 226T448 52T259 -20Q148 -20 89 49T29 248Q29 352 59 454T162 626T351 696Q462 696 521 628ZM309 553T291 534T259 469T234 336Q222 252 222 206Q222 161 234
143T273 124Q302 124 319 142T350 206T376 342Q389 438 389 475Q389 520 377 536T337 553Q309 553 291 534Z" />
<glyph unicode="1" glyph-name="one" horiz-adv-x="470" d="M182 0L250 483L101 398L35 536L291 680H465L370 0H182Z" />
<glyph unicode="2" glyph-name="two" horiz-adv-x="518" d="M365 696T416 672T493 608T519 517Q519 465 500 417T417 303T225 147L483 148L442 0H-15L2 137Q144 258 208 319T295 416T317 489Q317 516 300 532T254 548Q222 548 195 532T135 479L31 579Q83 635 150
665T292 696Q365 696 416 672Z" />
<glyph unicode="3" glyph-name="three" horiz-adv-x="520" d="M404 696T459 652T515 535Q515 480 479 431T360 358Q418 352 455 317T492 219Q492 167 464 112T368 19T192 -20Q111 -20 54 9T-40 91L77 187Q103 156 130 142T195 128Q238 128 266 154T295 227Q295
259 275 274T212 289H152L191 421H231Q282 421 303 447T324 504Q324 528 307 540T259 553Q190 553 124 495L41 604Q158 696 299 696Q404 696 459 652Z" />
<glyph unicode="4" glyph-name="four" horiz-adv-x="573" d="M472 134L453 0H263L281 134H0L18 263L257 701L418 641L230 280H303L346 428H513L492 280H560L540 134H472Z" />
<glyph unicode="5" glyph-name="five" horiz-adv-x="545" d="M274 542L258 433Q304 454 353 454Q428 454 473 405T519 265Q519 200 487 135T384 25T205 -20Q59 -20 -22 90L94 188Q143 126 211 126Q260 126 290 159T321 252Q321 323 255 323Q221 323 180 298L52
299L105 680H544L504 542H274Z" />
<glyph unicode="6" glyph-name="six" horiz-adv-x="570" d="M464 464T509 415T554 278Q554 215 525 146T432 29T267 -20Q145 -20 85 46T24 230Q24 267 30 309Q47 425 97 512T224 648T397 696Q446 696 485 683T552 647L467 536Q432 560 388 560Q341 560 306 525T251
420Q283 442 318 453T386 464Q464 464 509 415ZM320 118T339 169T359 275Q359 307 348 320T310 333Q274 333 233 301Q224 237 224 197Q224 154 236 136T275 118Q320 118 339 169Z" />
<glyph unicode="7" glyph-name="seven" horiz-adv-x="470" d="M183 -20L12 40L295 534H41L61 680H519L501 550L183 -20Z" />
<glyph unicode="8" glyph-name="eight" horiz-adv-x="587" d="M559 302T559 202Q559 144 523 93T417 11T253 -20Q174 -20 118 5T34 72T5 168Q5 221 41 269T153 348Q77 402 77 484Q77 534 105 583T195 664T349 696Q455 696 517 652T580 531Q580 489 550 444T453
363Q559 302 559 202ZM299 567T282 543T264 491Q264 450 309 425L330 416Q367 442 379 470T392 522Q392 542 378 554T339 567Q299 567 282 543ZM318 118T341 143T365 206Q365 230 350 246T300 278L265 291Q230 270 216 238T201 179Q201 152 220 135T273 118Q318
118 341 143Z" />
<glyph unicode="9" glyph-name="nine" horiz-adv-x="570" d="M450 696T514 636T578 477Q578 367 533 264T373 79T60 -32L37 105Q125 123 181 144T274 198T338 279Q308 253 277 241T205 229Q158 229 121 251T62 316T40 416Q40 482 71 546T168 653T333 696Q450 696
514 636ZM235 392T248 378T284 363Q306 363 329 374T371 410Q379 463 379 491Q379 528 366 544T323 560Q276 560 256 519T235 428Q235 392 248 378Z" />
<glyph unicode=":" glyph-name="colon" horiz-adv-x="241" d="M144 186T169 160T195 95Q195 65 179 39T137 -4T81 -20Q42 -20 17 7T-9 73Q-9 102 7 128T49 170T106 186Q144 186 169 160ZM190 518T215 492T241 427Q241 397 225 371T183 328T127 312Q88 312 63 339T37
405Q37 434 53 460T95 502T152 518Q190 518 215 492Z" />
<glyph unicode=";" glyph-name="semicolon" horiz-adv-x="246" d="M150 186T175 161T200 97Q200 69 189 43T143 -45L62 -184H-39L32 0Q-3 24 -3 69Q-3 118 30 152T111 186Q150 186 175 161ZM193 518T218 492T244 427Q244 397 228 371T186 328T130 312Q91 312 66
339T40 405Q40 434 56 460T98 502T155 518Q193 518 218 492Z" />
<glyph unicode="&lt;" glyph-name="less" horiz-adv-x="519" d="M201 333L488 215L409 75L22 249L45 416L481 591L528 449L201 333Z" />
<glyph unicode="=" glyph-name="equal" horiz-adv-x="519" d="M516 517L495 367H53L74 517H516ZM741 553L720 403H278L299 553H741Z" />
<glyph unicode="&gt;" glyph-name="greater" horiz-adv-x="518" d="M491 249L56 75L12 225L336 333L51 459L128 591L515 416L491 249Z" />
<glyph unicode="?" glyph-name="question" horiz-adv-x="483" d="M411 716T465 674T519 564Q519 512 500 477T454 421T386 378Q342 354 321 335T299 284Q299 276 301 266L130 241Q124 265 124 289Q124 334 141 365T181 416T242 456Q278 477 295 492T312 532Q312
562 269 562Q219 562 158 507L51 605Q159 716 309 716Q411 716 465 674ZM258 186T283 160T309 95Q309 65 293 39T251 -4T195 -20Q156 -20 131 7T105 73Q105 102 121 128T163 170T220 186Q258 186 283 160Z" />
<glyph unicode="@" glyph-name="at" horiz-adv-x="1008" d="M698 716T790 668T932 539T981 359Q981 279 953 196T868 57T726 1Q690 1 659 15T608 52T586 100Q537 6 442 6Q358 6 317 53T275 179Q275 252 302 327T391 456T553 509Q595 509 643 496T728 460L689 161L688
148Q688 116 717 116Q749 116 770 157T802 256T813 368Q813 577 556 577Q423 577 344 517T232 369T200 188Q200 63 274 -11T487 -86Q527 -86 579 -76T671 -51L699 -184Q651 -203 586 -215T470 -227Q334 -227 234 -175T81 -31T28 182Q28 304 85 427T266 633T572
716Q698 716 790 668ZM504 125T523 154L556 384Q546 389 530 389Q485 389 465 318T445 167Q445 143 453 134T477 125Q504 125 523 154Z" />
<glyph unicode="A" glyph-name="A" horiz-adv-x="589" d="M193 135L149 0H-62L234 696H476L577 0H363L356 135H193ZM332 567L239 279H348L332 567Z" />
<glyph unicode="B" glyph-name="B" horiz-adv-x="610" d="M515 356T552 323T589 221Q589 121 509 61T246 0H6L103 696H314Q455 696 529 659T604 535Q604 465 561 425T453 368Q515 356 552 323ZM358 427T376 450T395 509Q395 533 377 544T315 555H284L266 427H301Q358
427 376 450ZM333 145T357 169T382 239Q382 297 297 297H248L227 145H266Q333 145 357 169Z" />
<glyph unicode="C" glyph-name="C" horiz-adv-x="571" d="M537 716T613 626L504 520Q481 544 456 556T397 568Q338 568 302 520T250 403T234 274Q234 135 337 135Q370 135 400 150T471 194L545 76Q498 34 437 7T308 -20Q174 -20 100 55T25 270Q25 377 63 479T184
648T395 716Q537 716 613 626Z" />
<glyph unicode="D" glyph-name="D" horiz-adv-x="645" d="M466 696T554 638T642 432Q642 239 548 120T237 0H6L103 696H320Q466 696 554 638ZM228 145H267Q361 145 397 230T434 430Q434 498 408 524T327 551H285L228 145Z" />
<glyph unicode="E" glyph-name="E" horiz-adv-x="510" d="M285 553L267 423H464L446 284H248L228 144H470L450 0H6L103 696H552L511 553H285Z" />
<glyph unicode="F" glyph-name="F" horiz-adv-x="475" d="M285 553L264 401H450L430 258H244L208 0H6L103 696H537L496 553H285Z" />
<glyph unicode="G" glyph-name="G" horiz-adv-x="640" d="M499 716T557 690T654 622L540 519Q512 547 485 559T421 572Q317 572 274 474T231 243Q231 178 252 152T319 126Q356 126 394 142L412 270H343L345 409H626L578 58Q519 21 447 1T310 -20Q24 -20 24 259Q24
374 65 478T196 649T425 716Q499 716 557 690Z" />
<glyph unicode="H" glyph-name="H" horiz-adv-x="645" d="M247 281L208 0H6L103 696H305L269 439H424L460 696H662L565 0H363L401 281H247Z" />
<glyph unicode="I" glyph-name="I" horiz-adv-x="288" d="M6 0L103 696H305L208 0H6Z" />
<glyph unicode="J" glyph-name="J" horiz-adv-x="316" d="M241 19T199 -40T99 -132T-32 -189L-68 -44Q-24 -28 0 -5T35 46T52 119L133 696H335L254 110Q241 19 199 -40Z" />
<glyph unicode="K" glyph-name="K" horiz-adv-x="647" d="M6 0L103 696H305L208 0H6ZM630 0H402L266 371L499 696H709L471 377L630 0Z" />
<glyph unicode="L" glyph-name="L" d="M487 158L445 0H6L103 696H305L230 158H487Z" />
<glyph unicode="M" glyph-name="M" horiz-adv-x="779" d="M527 0L556 248Q571 379 604 552L458 70H264L241 550Q240 449 235 384T217 247L178 0H-21L125 696H369L382 226L518 696H774L726 0H527Z" />
<glyph unicode="N" glyph-name="N" horiz-adv-x="639" d="M305 0L220 527Q225 462 225 399Q225 302 211 205L182 0H6L103 696H353L442 169Q436 261 436 301Q436 382 450 484L480 696H656L559 0H305Z" />
<glyph unicode="O" glyph-name="O" horiz-adv-x="678" d="M534 716T605 641T676 429Q676 322 640 220T520 49T301 -20Q168 -20 97 56T25 268Q25 375 61 477T181 647T400 716Q534 716 605 641ZM325 570T292 515T246 387T233 246Q233 183 253 155T317 126Q402 126
435 230T468 452Q468 514 448 542T384 570Q325 570 292 515Z" />
<glyph unicode="P" glyph-name="P" horiz-adv-x="600" d="M476 696T546 645T617 495Q617 427 585 364T483 259T306 217H238L208 0H6L103 696H349Q476 696 546 645ZM361 362T385 400T409 483Q409 553 328 553H285L258 362H304Q361 362 385 400Z" />
<glyph unicode="Q" glyph-name="Q" horiz-adv-x="678" d="M554 43T599 28T682 -20L543 -176Q500 -107 444 -64T301 -20Q168 -20 97 56T25 268Q25 375 61 477T181 647T400 716Q534 716 605 641T676 429Q676 311 630 206T479 46Q554 43 599 28ZM233 183T253 155T317
126Q402 126 435 230T468 452Q468 514 448 542T384 570Q325 570 292 515T246 387T233 246Q233 183 253 155Z" />
<glyph unicode="R" glyph-name="R" horiz-adv-x="612" d="M618 437T588 383T470 282L595 0H375L283 248H242L208 0H6L103 696H354Q486 696 552 652T618 515Q618 437 588 383ZM314 386Q368 386 389 419T410 495Q410 555 329 555H285L262 386H314Z" />
<glyph unicode="S" glyph-name="S" horiz-adv-x="576" d="M504 716T594 620L492 515Q431 570 354 570Q314 570 293 555T271 514Q271 498 280 487T311 467T380 440Q470 410 513 361T556 238Q556 172 525 114T424 18T244 -20Q155 -20 88 9T-25 86L88 201Q155 134
244 134Q292 134 317 151T342 197Q342 226 321 246T244 285Q144 318 101 368T58 488Q58 548 89 600T187 684T353 716Q504 716 594 620Z" />
<glyph unicode="T" glyph-name="T" horiz-adv-x="542" d="M411 542L335 0H133L209 542H43L64 696H608L566 542H411Z" />
<glyph unicode="U" glyph-name="U" horiz-adv-x="632" d="M585 162T546 105T438 14T278 -20Q153 -20 90 36T26 191Q26 213 29 237L93 696H295L231 241Q228 219 228 201Q228 164 243 146T294 128Q338 128 361 156T393 243L457 696H659L595 235Q585 162 546 105Z" />
<glyph unicode="V" glyph-name="V" horiz-adv-x="567" d="M123 0L36 696H247L274 143L444 696H653L383 0H123Z" />
<glyph unicode="W" glyph-name="W" horiz-adv-x="847" d="M446 0L455 500L317 0H61L62 696H262L229 149L378 696H590L574 149L709 696H905L709 0H446Z" />
<glyph unicode="X" glyph-name="X" horiz-adv-x="594" d="M567 0H351L291 249L169 0H-47L186 369L187 370L63 696H278L323 486L435 696H650L430 375L429 374L567 0Z" />
<glyph unicode="Y" glyph-name="Y" horiz-adv-x="608" d="M368 0H166L202 256L45 696H262L325 412L467 696H683L404 257L368 0Z" />
<glyph unicode="Z" glyph-name="Z" horiz-adv-x="545" d="M237 161H516L474 0H-28L-8 151L326 540H76L97 696H582L561 543L237 161Z" />
<glyph unicode="[" glyph-name="bracketleft" horiz-adv-x="313" d="M255 684L161 15H271L251 -127H-44L91 827H385L365 684H255Z" />
<glyph unicode="\" glyph-name="backslash" horiz-adv-x="508" d="M231 -117L124 782L300 822L408 -77L231 -117Z" />
<glyph unicode="]" glyph-name="bracketright" horiz-adv-x="313" d="M-49 -127L-28 16H82L176 685H66L86 827H380L246 -127H-49Z" />
<glyph unicode="^" glyph-name="asciicircum" horiz-adv-x="558" d="M405 527L340 705L231 527H40L271 847H449L590 527H405Z" />
<glyph unicode="_" glyph-name="underscore" horiz-adv-x="508" d="M461 -38L440 -188H-60L-39 -38H461Z" />
<glyph unicode="`" glyph-name="grave" horiz-adv-x="352" d="M322 613L90 712L182 856L386 711L322 613Z" />
<glyph unicode="a" glyph-name="a" horiz-adv-x="573" d="M388 554T450 539T565 491L519 172Q517 154 517 148Q517 132 522 124T541 110L485 -16Q435 -13 397 9T344 72Q285 -20 187 -20Q100 -20 55 37T10 197Q10 283 42 364T146 500T329 554Q388 554 450 539ZM263
418T236 351T209 198Q209 153 220 138T252 122Q294 122 329 182L363 412Q341 418 321 418Q263 418 236 351Z" />
<glyph unicode="b" glyph-name="b" horiz-adv-x="582" d="M292 520T331 537T406 554Q489 554 530 501T572 347Q572 199 500 90T245 -20Q121 -20 8 30L108 744L304 764L266 493Q292 520 331 537ZM284 412T248 359L216 131Q242 121 267 121Q321 121 347 189T373
338Q373 381 361 396T327 412Q284 412 248 359Z" />
<glyph unicode="c" glyph-name="c" horiz-adv-x="468" d="M380 554T426 535T506 480L413 369Q374 405 327 405Q265 405 240 347T214 212Q214 167 232 150T283 133Q306 133 327 141T378 168L448 44Q359 -20 255 -20Q140 -20 76 44T11 217Q11 293 44 371T148 501T326
554Q380 554 426 535Z" />
<glyph unicode="d" glyph-name="d" horiz-adv-x="589" d="M511 0H338L339 69Q274 -20 182 -20Q98 -20 57 36T15 197Q15 280 42 362T129 499T283 554Q313 554 340 543T388 511L423 764L615 744L511 0ZM264 413T240 345T215 199Q215 154 226 138T256 122Q294 122
345 205L371 389Q360 402 348 407T319 413Q264 413 240 345Z" />
<glyph unicode="e" glyph-name="e" horiz-adv-x="542" d="M545 300T448 252T206 191Q213 120 287 120Q319 120 349 132T419 169L486 56Q382 -20 261 -20Q137 -20 75 42T12 211Q12 291 44 370T148 501T331 554Q432 554 488 512T545 401Q545 300 448 252ZM269 305T299
321T340 357T351 389Q351 408 341 418T308 429Q271 429 248 393T214 302Q269 305 299 321Z" />
<glyph unicode="f" glyph-name="f" horiz-adv-x="357" d="M340 622T323 606T301 554L298 534H420L380 400H279L234 76Q216 -54 145 -122T-44 -227L-91 -86Q-30 -65 0 -31T39 66L85 400H15L33 534H104L108 566Q120 653 182 708T350 764Q400 764 441 751T512 717L446
602Q411 622 369 622Q340 622 323 606Z" />
<glyph unicode="g" glyph-name="g" horiz-adv-x="574" d="M393 554T455 539T570 491L509 58Q495 -43 461 -105T365 -197T206 -227Q156 -227 99 -210T-4 -164L59 -40Q138 -82 205 -82Q250 -82 278 -61T316 21L323 63Q267 0 188 0Q102 0 57 57T11 211Q11 290 43
368T149 500T334 554Q393 554 455 539ZM285 418T259 386T222 307T210 218Q210 144 256 144Q297 144 336 202L368 412Q345 418 327 418Q285 418 259 386Z" />
<glyph unicode="h" glyph-name="h" horiz-adv-x="560" d="M481 554T513 521T545 428Q545 411 542 393L487 0H293L345 341Q348 356 348 365Q348 393 328 393Q311 393 288 364T238 278L198 0H4L108 744L304 764L259 448Q286 495 332 524T422 554Q481 554 513 521Z" />
<glyph unicode="i" glyph-name="i" horiz-adv-x="276" d="M4 0L78 534H272L198 0H4ZM259 829T285 803T312 736Q312 686 277 652T189 617Q145 617 119 643T92 710Q92 759 128 794T215 829Q259 829 285 803Z" />
<glyph unicode="j" glyph-name="j" horiz-adv-x="272" d="M186 -54T115 -122T-74 -227L-121 -86Q-60 -65 -30 -31T9 66L74 534H268L204 76Q186 -54 115 -122ZM511 829T537 803T564 736Q564 686 529 652T441 617Q397 617 371 643T344 710Q344 759 380 794T467 829Q511
829 537 803Z" />
<glyph unicode="k" glyph-name="k" horiz-adv-x="581" d="M306 518T348 536T438 554Q509 554 549 518T590 423Q590 300 457 238L543 0H331L253 256Q331 283 362 315T394 385Q394 421 356 421Q304 421 246 337L199 0H4L108 744L305 764L265 478Q306 518 348 536Z" />
<glyph unicode="l" glyph-name="l" horiz-adv-x="289" d="M215 160Q215 135 235 135Q241 135 255 139L273 1Q251 -9 220 -14T157 -20Q90 -20 54 15T17 115Q17 133 20 152L103 744L299 764L216 171L215 160Z" />
<glyph unicode="m" glyph-name="m" horiz-adv-x="821" d="M742 554T774 521T806 428Q806 411 803 393L748 0H554L606 341Q609 356 609 365Q609 393 589 393Q573 393 553 365T513 286L473 0H279L331 341Q334 356 334 365Q334 393 314 393Q297 393 276 363T238 281L198
0H4L78 534H247L248 456Q277 502 320 528T408 554Q457 554 488 530T527 462Q558 504 600 529T683 554Q742 554 774 521Z" />
<glyph unicode="n" glyph-name="n" horiz-adv-x="560" d="M481 554T513 521T545 428Q545 411 542 393L487 0H293L345 341Q348 356 348 365Q348 393 328 393Q311 393 288 364T238 278L198 0H4L78 534H247L248 446Q279 494 328 524T422 554Q481 554 513 521Z" />
<glyph unicode="o" glyph-name="o" horiz-adv-x="572" d="M433 554T495 493T558 326Q558 239 528 161T428 31T247 -20Q137 -20 75 41T13 211Q13 298 43 376T143 504T323 554Q433 554 495 493ZM251 412T231 346T211 201Q211 159 223 141T263 122Q320 122 340 190T360
338Q360 377 347 394T307 412Q251 412 231 346Z" />
<glyph unicode="p" glyph-name="p" horiz-adv-x="587" d="M489 554T530 501T572 347Q572 260 544 176T453 36T289 -20Q240 -20 195 -8L168 -207L-28 -227L78 534H251L252 479Q289 518 329 536T406 554Q489 554 530 501ZM284 412T248 360L216 131Q242 121 267 121Q321
121 347 189T373 338Q373 381 361 396T327 412Q284 412 248 360Z" />
<glyph unicode="q" glyph-name="q" horiz-adv-x="572" d="M390 554T452 539T567 491L470 -207L270 -227L312 36Q300 17 264 -1T183 -20Q99 -20 54 38T9 197Q9 287 42 368T147 502T331 554Q390 554 452 539ZM265 418T237 350T208 198Q208 153 220 138T254 122Q296
122 331 182L365 412Q342 418 323 418Q265 418 237 350Z" />
<glyph unicode="r" glyph-name="r" horiz-adv-x="399" d="M423 551T449 542L394 351Q367 359 348 359Q304 359 278 324T230 225L198 0H4L78 534H247L248 439Q273 489 314 520T396 551Q423 551 449 542Z" />
<glyph unicode="s" glyph-name="s" horiz-adv-x="481" d="M333 554T391 535T482 484L398 378Q374 396 341 406T277 417Q227 417 227 390Q227 380 234 374T265 358T327 337Q459 293 459 174Q459 95 402 38T209 -20Q138 -20 74 6T-27 74L69 174Q96 149 131 133T206
117Q236 117 252 124T268 150Q268 162 261 169T234 185T167 209Q103 231 69 272T35 370Q35 422 63 464T147 530T277 554Q333 554 391 535Z" />
<glyph unicode="t" glyph-name="t" horiz-adv-x="389" d="M300 135T325 149L373 22Q339 2 294 -9T211 -20Q45 -19 45 144Q45 160 49 198L78 400H15L33 534H105L137 649L309 669L290 534H408L370 400H272L244 198Q242 180 242 174Q242 153 250 144T273 135Q300
135 325 149Z" />
<glyph unicode="u" glyph-name="u" horiz-adv-x="554" d="M307 0L309 67Q275 26 233 3T144 -20Q79 -20 48 14T16 111Q16 130 19 151L73 534H267L220 189Q219 181 219 169Q219 151 225 145T242 138Q257 138 274 155T309 201L356 534H550L476 0H307Z" />
<glyph unicode="v" glyph-name="v" d="M107 0L21 534H229L244 143L365 534H567L340 0H107Z" />
<glyph unicode="w" glyph-name="w" horiz-adv-x="756" d="M399 0L392 358L288 0H65L34 534H230L208 151L330 534H511L513 151L610 534H796L619 0H399Z" />
<glyph unicode="x" glyph-name="x" horiz-adv-x="516" d="M499 0H286L242 178L151 0H-57L141 283L30 534H244L273 377L341 534H545L379 282L499 0Z" />
<glyph unicode="y" glyph-name="y" horiz-adv-x="520" d="M249 -220T-18 -228L-22 -93Q54 -86 94 -65T161 1L96 0L21 534H223L234 122L370 534H573L344 0Q249 -220 -18 -228Z" />
<glyph unicode="z" glyph-name="z" horiz-adv-x="460" d="M229 146H435L398 0H-34L-16 138L222 390H40L60 534H482L464 397L229 146Z" />
<glyph unicode="{" glyph-name="braceleft" horiz-adv-x="313" d="M324 708T311 696T292 653L271 499Q261 429 228 396T132 348Q182 340 207 315T233 237Q233 220 230 199L208 45Q207 38 207 26Q207 7 218 0T261 -8L245 -142Q127 -142 75 -107T23 -1Q23 11 25
33L46 186Q50 214 50 222Q50 248 38 258T-4 269L19 431Q55 431 71 450T93 516L114 669Q123 729 147 766T226 822T381 842L363 708Q324 708 311 696Z" />
<glyph unicode="|" glyph-name="bar" horiz-adv-x="348" d="M31 -107L159 812H341L213 -107H31Z" />
<glyph unicode="}" glyph-name="braceright" horiz-adv-x="313" d="M12 -8T25 4T44 47L65 201Q75 271 108 304T204 352Q154 361 129 385T103 463Q103 480 106 501L128 655Q130 669 130 674Q130 693 119 700T75 708L91 842Q210 842 262 807T314 701Q314 685 311
667L290 514Q287 493 287 478Q287 453 299 442T340 431L317 269Q281 269 265 250T243 184L222 31Q213 -29 189 -66T110 -122T-45 -142L-27 -8Q12 -8 25 4Z" />
<glyph unicode="~" glyph-name="asciitilde" horiz-adv-x="518" d="M234 426T257 417T306 389Q322 377 334 372T360 366Q385 366 399 379T433 422L528 365Q488 299 443 260T337 221Q301 221 277 230T227 258Q211 270 199 275T172 281Q147 281 133 268T100 225L6
282Q46 348 91 387T197 426Q234 426 257 417Z" />
</font>
</defs>
</svg>
